<?xml version="1.0" standalone="no"?>
<!DOCTYPE svg PUBLIC "-//W3C//DTD SVG 20010904//EN"
 "http://www.w3.org/TR/2001/REC-SVG-20010904/DTD/svg10.dtd">
<svg version="1.0" xmlns="http://www.w3.org/2000/svg"
 width="500.000000pt" height="500.000000pt" viewBox="0 0 500.000000 500.000000"
 preserveAspectRatio="xMidYMid meet">

<g transform="translate(0.000000,500.000000) scale(0.100000,-0.100000)"
fill="#000000" stroke="none">
<path d="M943 4653 c48 -2 125 -2 170 0 45 1 6 3 -88 3 -93 0 -130 -2 -82 -3z"/>
<path d="M255 4630 c-4 -8 -2 -16 4 -18 7 -2 10 -414 11 -1233 0 -918 -3
-1229 -11 -1223 -8 5 -9 2 -2 -10 8 -15 62 -16 596 -17 378 -1 591 2 599 8 7
6 49 13 93 17 43 3 84 11 89 16 6 6 18 10 27 10 9 0 30 7 45 15 16 8 37 15 46
15 9 0 19 4 23 9 3 5 19 12 35 16 17 4 30 11 30 16 0 5 11 11 25 15 14 3 25
10 25 14 0 4 11 11 25 14 14 4 25 11 25 16 0 6 6 10 13 10 15 0 57 44 57 59 0
6 3 11 8 11 16 0 99 160 108 207 4 21 12 41 18 45 15 10 15 306 -1 316 -6 4
-14 26 -18 50 -4 23 -11 42 -17 42 -6 0 -8 9 -5 20 3 10 2 20 -2 22 -19 8 -62
79 -55 90 4 7 4 10 -1 6 -8 -8 -35 15 -35 31 0 5 -8 12 -18 15 -9 4 -33 20
-52 36 -19 16 -40 34 -47 39 -6 6 -23 13 -37 17 -14 3 -26 10 -26 15 0 4 -16
11 -35 15 -19 3 -35 10 -35 14 0 5 -18 11 -40 15 -22 4 -40 11 -40 15 0 5 -36
12 -80 16 -44 3 -83 11 -86 15 -3 5 -26 9 -52 10 -59 0 -32 13 51 23 31 4 57
11 57 16 0 4 20 11 45 14 25 4 45 11 45 16 0 5 14 11 30 15 17 4 30 10 30 15
0 4 12 11 27 15 28 7 163 135 163 155 0 6 4 8 10 5 6 -3 7 1 4 9 -3 9 -2 16 4
16 6 0 13 14 17 31 4 17 12 32 18 35 7 2 13 23 15 47 1 23 7 44 12 45 12 5 13
292 1 292 -5 0 -11 23 -15 50 -4 28 -11 50 -16 50 -4 0 -11 14 -15 30 -4 17
-10 30 -15 30 -5 0 -11 14 -15 30 -4 17 -11 28 -16 24 -5 -3 -9 1 -9 8 0 13
-47 58 -62 58 -4 0 -7 5 -5 11 1 6 -8 13 -21 15 -12 2 -39 14 -60 27 -20 13
-55 32 -77 41 -22 10 -48 22 -58 27 -9 5 -39 12 -65 16 -26 3 -53 11 -61 17
-10 8 -197 13 -617 16 -527 4 -605 3 -609 -10z m641 -39 c5 -5 87 -11 182 -13
113 -2 175 -7 180 -14 4 -6 18 -15 31 -19 14 -4 31 -13 38 -19 47 -39 83 -75
83 -83 0 -6 6 -16 14 -22 8 -7 18 -26 21 -42 4 -16 10 -29 15 -29 5 0 12 -21
16 -47 4 -27 11 -51 17 -55 14 -9 14 -373 0 -390 -6 -7 -14 -37 -18 -65 -4
-29 -10 -53 -15 -53 -4 0 -11 -16 -14 -35 -4 -19 -11 -35 -15 -35 -5 0 -12
-11 -15 -25 -4 -14 -11 -25 -16 -25 -6 0 -10 -7 -10 -16 0 -16 -58 -74 -74
-74 -5 0 -17 -6 -25 -14 -9 -8 -34 -17 -56 -20 -21 -4 -42 -11 -45 -15 -5 -9
-237 -8 -285 1 -46 8 -137 64 -173 107 -101 120 -259 411 -278 513 -4 18 -11
41 -16 51 -5 9 -5 17 -1 16 4 0 37 -59 73 -132 63 -128 79 -156 204 -348 60
-91 116 -147 136 -134 7 4 10 176 10 526 0 530 1 543 36 510z m-509 -543 c-3
-8 -6 -5 -6 6 -1 11 2 17 5 13 3 -3 4 -12 1 -19z m33 -98 c0 -26 116 -248 160
-305 81 -107 167 -171 265 -200 33 -9 70 -21 83 -26 13 -5 82 -9 155 -9 73 0
126 -4 119 -8 -7 -5 15 -6 48 -4 36 3 60 0 60 -6 0 -5 18 -12 40 -16 22 -3 40
-11 40 -16 0 -5 11 -12 25 -16 14 -3 25 -10 25 -15 0 -5 5 -9 11 -9 14 0 102
-92 128 -134 12 -18 21 -41 21 -50 0 -9 4 -16 9 -16 5 0 12 -17 16 -37 4 -21
10 -42 15 -48 4 -5 13 -60 19 -121 12 -117 0 -336 -19 -359 -5 -6 -12 -30 -16
-53 -4 -23 -10 -42 -15 -42 -5 0 -9 -6 -9 -13 0 -13 -34 -81 -51 -101 -37 -44
-59 -66 -68 -66 -5 0 -16 -6 -23 -12 -25 -24 -105 -58 -137 -58 -19 0 -30 -4
-26 -10 4 -7 -70 -10 -214 -10 l-221 0 0 560 c0 507 -2 560 -16 560 -27 0
-129 -113 -190 -212 -54 -87 -174 -326 -174 -347 0 -5 -7 -22 -15 -37 -8 -16
-15 -37 -15 -46 0 -10 -4 -18 -10 -18 -5 0 -10 -10 -10 -21 0 -18 -2 -19 -15
-9 -17 14 -20 56 -5 65 6 4 8 11 4 16 -3 5 -1 15 4 22 5 7 13 28 16 47 14 70
73 201 145 320 54 89 194 232 257 261 24 12 42 25 39 29 -2 4 -22 10 -43 14
-68 10 -173 71 -243 141 -68 67 -139 185 -154 255 -4 19 -11 40 -15 45 -7 10
-50 146 -50 160 0 3 5 3 10 0 6 -3 10 2 10 12 0 13 4 10 15 -11 8 -15 15 -36
15 -46z m-10 -1350 c0 -5 -4 -10 -10 -10 -5 0 -10 5 -10 10 0 6 5 10 10 10 6
0 10 -4 10 -10z"/>
<path d="M3098 3353 c-21 -2 -38 -8 -38 -12 0 -5 -25 -12 -55 -16 -30 -3 -57
-11 -60 -16 -4 -5 -13 -9 -21 -9 -19 0 -147 -62 -164 -80 -3 -3 -39 -22 -80
-41 -41 -20 -91 -50 -110 -65 -71 -59 -280 -278 -280 -294 0 -4 -11 -20 -25
-36 -14 -16 -42 -62 -61 -103 -27 -55 -39 -70 -46 -60 -7 11 -8 9 -4 -5 6 -18
-9 -72 -42 -146 -17 -38 -41 -119 -49 -165 -3 -16 -11 -33 -17 -37 -16 -10
-16 -576 0 -586 6 -4 14 -33 18 -64 4 -32 12 -60 17 -63 5 -4 9 -17 9 -31 0
-13 5 -24 10 -24 6 0 10 -9 10 -20 0 -11 4 -20 9 -20 5 0 12 -18 16 -40 4 -22
11 -42 16 -46 5 -3 9 -12 9 -20 0 -17 72 -145 104 -185 12 -14 28 -36 36 -49
8 -12 41 -50 73 -83 33 -34 75 -82 95 -106 41 -49 157 -141 178 -141 8 0 14
-4 14 -9 0 -5 12 -12 27 -16 15 -3 30 -10 33 -13 3 -4 26 -17 52 -30 27 -13
54 -29 60 -35 16 -15 73 -37 111 -44 15 -3 27 -9 27 -13 0 -5 25 -12 55 -15
30 -4 55 -12 55 -17 0 -6 18 -8 40 -6 22 2 40 0 40 -4 0 -10 33 -10 57 -1 14
6 11 9 -17 15 -28 5 -25 6 10 2 130 -14 291 -16 305 -4 8 7 15 9 15 4 0 -10
117 -11 140 -2 8 4 33 9 55 13 22 4 45 10 50 15 6 4 27 10 47 14 20 4 38 10
40 14 2 4 39 25 83 47 44 22 82 43 85 47 3 3 18 10 33 13 15 4 27 11 27 16 0
5 5 9 11 9 13 0 73 44 112 82 16 16 32 28 36 28 10 0 100 89 164 163 64 74
134 177 149 217 5 17 14 30 18 30 4 0 11 16 14 35 4 19 11 35 16 35 4 0 11 18
15 40 4 22 11 40 15 40 5 0 12 17 16 38 4 20 12 44 20 52 7 9 18 40 23 70 6
30 15 80 21 110 17 84 18 380 2 464 -7 39 -18 96 -23 126 -6 30 -16 61 -24 70
-8 8 -16 33 -18 55 -2 21 -9 41 -15 43 -6 2 -14 19 -18 38 -3 19 -10 34 -14
34 -4 0 -11 16 -14 35 -4 19 -11 35 -16 35 -7 0 -21 28 -25 50 -3 18 -39 80
-46 80 -5 0 -9 7 -9 15 0 9 -7 18 -15 21 -8 4 -15 10 -15 16 0 38 -280 310
-360 350 -25 13 -47 26 -50 30 -3 3 -18 10 -33 13 -15 4 -27 11 -27 16 0 5 -6
9 -13 9 -7 0 -44 16 -81 35 -38 19 -75 35 -82 35 -8 0 -14 4 -14 9 0 5 -24 12
-52 16 -29 4 -61 12 -71 17 -18 9 -57 2 -57 -10 0 -4 23 -18 52 -32 160 -78
287 -215 401 -431 68 -130 131 -352 159 -564 26 -190 12 -650 -23 -780 -18
-66 -28 -107 -40 -165 -27 -128 -78 -255 -126 -313 -31 -38 -29 -23 7 51 17
34 30 66 30 71 0 4 6 21 14 37 14 28 71 238 97 359 18 80 19 598 1 755 -22
205 -73 368 -179 572 -109 210 -241 337 -433 416 -69 29 -235 53 -287 42 -88
-18 -123 -21 -121 -8 3 14 -24 18 -84 11z m69 -29 c-3 -3 -12 -4 -19 -1 -8 3
-5 6 6 6 11 1 17 -2 13 -5z m-157 -81 c-14 -9 -27 -20 -30 -23 -3 -4 -16 -13
-30 -19 -23 -12 -23 -11 5 16 29 29 49 41 70 42 5 1 -2 -7 -15 -16z m-156
-138 c-4 -8 -10 -15 -14 -15 -5 0 -12 -10 -15 -21 -4 -12 -22 -42 -41 -66 -19
-25 -34 -49 -34 -54 0 -14 -30 -43 -37 -36 -3 3 4 18 16 33 11 15 21 32 21 40
0 7 3 14 8 16 4 2 24 29 46 61 36 53 63 76 50 42z m-167 -287 c-19 -40 -43
-98 -52 -128 -9 -30 -20 -62 -24 -70 -5 -9 -12 -39 -16 -68 -4 -29 -11 -52
-17 -52 -5 0 -7 -4 -4 -8 3 -5 -3 -56 -13 -113 -11 -57 -24 -179 -31 -271 -12
-159 -9 -238 15 -453 10 -88 49 -281 64 -320 4 -11 16 -45 26 -75 16 -53 78
-191 112 -255 21 -39 97 -154 120 -181 22 -27 121 -107 152 -124 13 -6 20 -14
17 -17 -9 -10 -105 60 -167 121 -56 55 -151 185 -164 225 -3 11 -11 21 -16 21
-5 0 -9 5 -9 11 0 5 -9 31 -21 57 -32 73 -36 83 -57 142 -12 30 -24 71 -28 90
-3 19 -10 40 -14 45 -8 11 -14 36 -30 135 -6 36 -15 90 -20 121 -30 169 3 769
49 884 5 11 21 61 36 110 15 50 31 99 35 110 29 68 43 95 52 95 5 0 6 5 3 11
-6 10 26 42 33 34 2 -2 -12 -37 -31 -77z m786 -283 c46 -19 47 -25 5 -25 -21
1 -45 11 -63 26 -30 26 -30 26 -4 20 14 -3 42 -12 62 -21z m-543 -466 c47 -92
72 -115 152 -140 40 -13 92 -37 118 -54 25 -17 66 -46 92 -64 31 -21 60 -53
83 -92 19 -33 35 -62 35 -65 0 -3 19 -31 42 -62 23 -31 35 -52 27 -45 -8 6
-31 14 -51 18 -51 10 -101 67 -119 135 -10 38 -22 59 -44 76 -42 32 -113 62
-173 74 -56 10 -172 61 -189 82 -7 8 -24 58 -38 113 -20 76 -23 100 -13 106
18 11 46 -18 78 -82z m-103 -402 c17 -13 66 -55 108 -95 43 -40 97 -82 121
-94 43 -20 77 -54 137 -138 36 -50 174 -148 247 -176 66 -24 106 -42 188 -81
40 -20 87 -39 105 -43 l32 -8 -33 -1 c-21 -1 -67 15 -118 40 -46 22 -110 45
-142 51 -98 18 -139 36 -162 73 -11 18 -60 65 -109 104 -55 44 -96 85 -108
108 -10 22 -40 52 -69 73 -28 19 -84 64 -123 100 -40 36 -85 71 -102 79 -16 9
-29 23 -29 33 0 14 3 16 13 8 6 -6 26 -21 44 -33z m717 -196 c-6 -6 -24 19
-24 34 1 6 7 1 15 -9 8 -11 12 -22 9 -25z m66 -86 c0 -5 -11 4 -25 20 -13 17
-24 35 -25 40 0 6 11 -3 25 -20 13 -16 24 -34 25 -40z m36 -32 c-7 -7 -26 7
-26 19 0 6 6 6 15 -2 9 -7 13 -15 11 -17z m361 -369 c-3 -3 -12 -4 -19 -1 -8
3 -5 6 6 6 11 1 17 -2 13 -5z"/>
<path d="M3580 3350 c0 -5 9 -10 20 -10 11 0 20 5 20 10 0 6 -9 10 -20 10 -11
0 -20 -4 -20 -10z"/>
<path d="M334 2053 l-51 -4 -7 -61 c-8 -80 -8 -1477 0 -1557 l7 -61 839 0
c789 0 839 1 846 18 8 19 10 1648 2 1655 -6 6 -1568 16 -1636 10z"/>
</g>
</svg>
